<?xml version="1.0" encoding="iso-8859-1"?>
<!-- Generator: Adobe Illustrator 19.0.0, SVG Export Plug-In . SVG Version: 6.00 Build 0)  -->
<svg version="1.1" id="Layer_1" xmlns="http://www.w3.org/2000/svg" xmlns:xlink="http://www.w3.org/1999/xlink" x="0px" y="0px"
	 viewBox="0 0 511.98 511.98" style="enable-background:new 0 0 511.98 511.98;" xml:space="preserve">
<path style="fill:#434A54;" d="M229.796,350.068c-2.711,2.719-6.805,3.875-10.719,2.656l-23.007-7.171
	c-5.625-1.75-8.765-7.719-7.015-13.344c1.758-5.624,7.734-8.765,13.358-7.015l23.007,7.155c5.625,1.75,8.765,7.734,7.007,13.359
	C231.897,347.413,230.975,348.896,229.796,350.068z"/>
<path style="fill:#CCD1D9;" d="M131.346,508.859c-1.141,1.141-2.531,2.016-4.094,2.547c-2.977,1.015-6.242,0.672-8.937-0.938
	l-75.419-45.249c-2.727-1.641-4.586-4.406-5.062-7.547c-0.477-3.14,0.469-6.343,2.586-8.702l90.997-101.995
	c1.421-1.609,3.312-2.734,5.398-3.25l8.383-2.078c3.476-12.656,12.804-40.452,31.413-59.076c0.008,0,0.008,0,0.008,0L380.64,78.548
	c2-2,4.703-3.125,7.531-3.125s5.547,1.125,7.547,3.125l30.17,30.17c4.172,4.172,4.172,10.922,0,15.094L209.296,340.397
	l-7.039,49.278c-0.5,3.516-2.71,6.547-5.898,8.094L170.79,410.19l-37.046,95.013C133.198,506.594,132.377,507.828,131.346,508.859z"
	/>
<path style="fill:#965353;" d="M388.172,75.423c-2.828,0-132.377,134.729-128.214,138.9l30.172,30.17c2,2,4.703,3.125,7.531,3.125
	c2.843,0,5.546-1.125,7.546-3.125l113.136-113.136l0,0l7.546-7.546c4.172-4.172,4.172-10.922,0-15.094l-30.17-30.17
	C393.719,76.548,391,75.423,388.172,75.423z"/>
<g>
	<polygon style="fill:#7F4545;" points="403.265,146.436 418.343,131.358 373.094,86.094 358.002,101.187 	"/>
	<polygon style="fill:#7F4545;" points="373.094,176.607 388.172,161.529 342.925,116.265 327.831,131.358 	"/>
	<polygon style="fill:#7F4545;" points="342.925,206.777 358.002,191.699 312.754,146.436 297.661,161.529 	"/>
	<polygon style="fill:#7F4545;" points="312.754,236.948 327.831,221.854 282.583,176.607 267.505,191.684 	"/>
</g>
<path style="fill:#E6E9ED;" d="M471.137,18.222L206.781,282.571c-4.164,4.172-10.914,4.172-15.085,0
	c-4.164-4.156-4.164-10.905,0-15.077L456.06,3.129c4.156-4.172,10.921-4.172,15.077,0C475.309,7.301,475.309,14.051,471.137,18.222z
	"/>
<path style="fill:#965353;" d="M203.32,265.181c-3.984-1.656-8.57-0.734-11.624,2.312l-15.078,15.077c0,0,0,0-0.008,0
	c-18.608,18.624-27.937,46.42-31.413,59.076l-8.383,2.078c-2.086,0.516-3.969,1.641-5.398,3.25L40.42,448.97
	c-2.117,2.359-3.062,5.562-2.586,8.702c0.477,3.141,2.336,5.906,5.062,7.547l75.419,45.249c2.695,1.609,5.96,1.952,8.937,0.938
	c1.562-0.531,2.953-1.406,4.094-2.547c1.031-1.031,1.851-2.266,2.398-3.656l37.046-95.013l25.569-12.421
	c3.188-1.547,5.398-4.578,5.898-8.094l7.547-52.794c0.07-0.5,0.102-1,0.102-1.5V275.04
	C209.906,270.728,207.312,266.838,203.32,265.181z"/>
<g>
</g>
<g>
</g>
<g>
</g>
<g>
</g>
<g>
</g>
<g>
</g>
<g>
</g>
<g>
</g>
<g>
</g>
<g>
</g>
<g>
</g>
<g>
</g>
<g>
</g>
<g>
</g>
<g>
</g>
</svg>
